<?xml version="1.0" encoding="iso-8859-1"?>
<!-- Uploaded to: SVG Repo, www.svgrepo.com, Generator: SVG Repo Mixer Tools -->
<svg height="800px" width="800px" version="1.1" id="Layer_1" xmlns="http://www.w3.org/2000/svg" xmlns:xlink="http://www.w3.org/1999/xlink" 
	 viewBox="0 0 511.999 511.999" xml:space="preserve">
<path style="fill:#F4B2B0;" d="M217.761,366.813c0-72.109,58.456-130.565,130.565-130.565c7.931,0,15.683,0.746,23.224,2.101
	l-0.526-12.666H43.367L33.11,472.758h238.952C239.184,449.049,217.761,410.445,217.761,366.813z"/>
<path style="fill:#B3404A;" d="M385.692,226.512l-0.06-1.434l0,0l0,0l-4.845-116.723c-0.326-7.833-6.77-14.015-14.608-14.015
	h-78.702V14.621C287.477,6.546,280.929,0,272.855,0h-131.32c-8.074,0-14.621,6.546-14.621,14.621v79.717H48.213
	c-7.838,0-14.284,6.183-14.608,14.015L28.76,225.076v0.001L18.5,472.151c-0.165,3.98,1.3,7.855,4.057,10.729
	c2.758,2.875,6.566,4.499,10.551,4.499h232.199h2.217c23.113,15.541,50.916,24.619,80.8,24.619
	c80.056,0,145.187-65.129,145.187-145.185C493.511,299.674,447.697,243.041,385.692,226.512z M456.24,324.502
	c-3.287-1.453-6.84-2.872-10.7-4.242c-11.991-4.258-25.744-7.626-40.618-10.042c-2.415-14.876-5.786-28.629-10.042-40.619
	c-1.37-3.859-2.788-7.412-4.242-10.698C420.579,270.681,444.458,294.562,456.24,324.502z M380.056,366.813
	c0,75.314-22.521,115.943-31.73,115.943c-6.341,0-18.996-19.275-26.261-55.877c8.575,0.595,17.358,0.905,26.261,0.905
	c8.074,0,14.621-6.546,14.621-14.621c0-8.075-6.547-14.621-14.621-14.621c-10.875,0-21.004-0.481-30.415-1.313
	c-0.832-9.412-1.313-19.54-1.313-30.417s0.481-21.005,1.313-30.417c9.412-0.832,19.54-1.313,30.415-1.313
	c10.877,0,21.005,0.481,30.417,1.313C379.573,345.81,380.056,355.938,380.056,366.813z M266.469,448.845
	c-0.069-0.069-0.137-0.139-0.208-0.209c-2.369-2.374-4.623-4.86-6.78-7.432c-0.345-0.412-0.692-0.825-1.031-1.241
	c-0.841-1.031-1.661-2.078-2.467-3.138c-0.531-0.7-1.047-1.411-1.562-2.122c-0.288-0.398-0.57-0.798-0.852-1.199
	c-5.327-7.575-9.729-15.757-13.117-24.359c3.275,1.448,6.815,2.858,10.657,4.223c11.992,4.258,25.745,7.626,40.619,10.042
	c2.415,14.876,5.784,28.629,10.042,40.619c1.37,3.859,2.787,7.413,4.242,10.7C291.082,468.853,277.641,459.993,266.469,448.845z
	 M291.731,310.219c-14.876,2.415-28.629,5.784-40.619,10.042c-3.859,1.37-7.412,2.787-10.698,4.242
	c11.78-29.941,35.661-53.821,65.601-65.603c-1.453,3.287-2.872,6.841-4.242,10.7C297.515,281.592,294.145,295.343,291.731,310.219z
	 M232.383,366.813c0-6.341,19.275-18.997,55.877-26.263c-0.595,8.577-0.905,17.358-0.905,26.263c0,8.904,0.31,17.686,0.905,26.263
	C251.659,385.811,232.383,373.156,232.383,366.813z M348.324,305.843c-8.903,0-17.686,0.31-26.261,0.905
	c7.265-36.602,19.92-55.877,26.261-55.877c6.341,0,18.997,19.275,26.263,55.877C366.012,306.153,357.229,305.843,348.324,305.843z
	 M126.914,123.581v39.912c0,8.075,6.547,14.621,14.621,14.621s14.621-6.546,14.621-14.621V29.243h102.076v65.095h-51.432
	c-8.074,0-14.621,6.546-14.621,14.621s6.547,14.621,14.621,14.621h51.432v39.912c0,8.075,6.547,14.621,14.621,14.621
	c8.074,0,14.621-6.546,14.621-14.621v-39.912h64.674l3.632,87.482H58.608l3.632-87.482L126.914,123.581L126.914,123.581z
	 M48.349,458.137l9.045-217.833h219.749c-0.133,0.075-0.262,0.155-0.393,0.231c-1.241,0.706-2.474,1.424-3.692,2.165
	c-0.023,0.015-0.047,0.029-0.07,0.044c-1.193,0.727-2.372,1.477-3.543,2.237c-0.332,0.215-0.661,0.434-0.991,0.652
	c-0.921,0.61-1.835,1.23-2.741,1.858c-0.294,0.205-0.591,0.406-0.883,0.613c-1.167,0.823-2.323,1.66-3.464,2.516
	c-0.127,0.095-0.253,0.194-0.38,0.291c-1.013,0.765-2.015,1.545-3.006,2.336c-0.307,0.244-0.611,0.491-0.915,0.738
	c-0.888,0.719-1.766,1.449-2.636,2.189c-0.232,0.197-0.466,0.392-0.699,0.591c-1.083,0.933-2.155,1.882-3.211,2.845
	c-0.175,0.161-0.348,0.325-0.522,0.487c-0.882,0.813-1.752,1.636-2.613,2.47c-0.278,0.269-0.556,0.541-0.832,0.813
	c-0.857,0.842-1.702,1.695-2.538,2.559c-0.162,0.168-0.328,0.333-0.49,0.502c-0.993,1.037-1.969,2.088-2.932,3.154
	c-0.194,0.215-0.385,0.434-0.578,0.651c-0.772,0.866-1.535,1.74-2.287,2.625c-0.246,0.288-0.49,0.576-0.733,0.866
	c-0.828,0.988-1.645,1.987-2.448,2.999c-0.086,0.11-0.177,0.216-0.263,0.326c-0.892,1.13-1.763,2.277-2.623,3.435
	c-0.196,0.265-0.387,0.532-0.582,0.798c-0.671,0.918-1.333,1.845-1.984,2.78c-0.211,0.303-0.423,0.605-0.632,0.911
	c-1.621,2.369-3.176,4.786-4.658,7.251c-0.186,0.31-0.368,0.621-0.553,0.933c-0.575,0.972-1.138,1.952-1.69,2.937
	c-0.175,0.313-0.351,0.623-0.525,0.936c-0.697,1.268-1.382,2.546-2.043,3.835c-0.023,0.045-0.044,0.091-0.067,0.136
	c-0.629,1.23-1.234,2.472-1.828,3.723c-0.167,0.352-0.332,0.706-0.496,1.06c-0.478,1.028-0.945,2.062-1.398,3.103
	c-0.137,0.313-0.276,0.624-0.411,0.939c-0.569,1.329-1.121,2.667-1.652,4.015c-0.075,0.19-0.143,0.382-0.218,0.572
	c-0.45,1.162-0.886,2.331-1.309,3.508c-0.139,0.387-0.275,0.775-0.411,1.164c-0.38,1.091-0.749,2.189-1.104,3.291
	c-0.096,0.301-0.199,0.601-0.294,0.904c-0.436,1.382-0.851,2.772-1.246,4.171c-0.082,0.29-0.156,0.582-0.237,0.871
	c-0.311,1.132-0.61,2.269-0.893,3.411c-0.102,0.414-0.205,0.828-0.304,1.241c-0.282,1.18-0.551,2.364-0.804,3.556
	c-0.056,0.259-0.116,0.516-0.17,0.776c-0.297,1.431-0.57,2.872-0.823,4.318c-0.063,0.361-0.12,0.725-0.181,1.088
	c-0.189,1.123-0.364,2.252-0.526,3.383c-0.061,0.433-0.124,0.864-0.183,1.298c-0.174,1.301-0.333,2.608-0.474,3.921
	c-0.019,0.175-0.042,0.349-0.06,0.525c-0.152,1.477-0.276,2.961-0.383,4.451c-0.029,0.412-0.053,0.828-0.079,1.241
	c-0.072,1.132-0.13,2.268-0.175,3.407c-0.018,0.439-0.037,0.876-0.05,1.316c-0.047,1.51-0.077,3.024-0.077,4.546
	c0,1.953,0.05,3.895,0.127,5.829c0.01,0.232,0.016,0.465,0.026,0.696c1.42,31.915,13.19,61.178,32.029,84.517
	c0.075,0.092,0.142,0.189,0.216,0.279H48.349V458.137z M390.637,474.727c1.453-3.287,2.872-6.84,4.242-10.698
	c9.298-26.191,14.418-60.715,14.418-97.214c0-8.903-0.31-17.686-0.905-26.261c36.6,7.265,55.877,19.92,55.877,26.261
	C464.268,415.815,433.697,457.784,390.637,474.727z"/>
</svg>